<svg xmlns="http://www.w3.org/2000/svg" width="512" height="512" viewBox="0 0 512 512">
  <defs>
    <linearGradient id="g" x1="0" x2="1" y1="0" y2="1">
      <stop offset="0%" stop-color="#2563eb"/>
      <stop offset="50%" stop-color="#7c3aed"/>
      <stop offset="100%" stop-color="#16a34a"/>
    </linearGradient>
    <filter id="s" x="-20%" y="-20%" width="140%" height="140%">
      <feDropShadow dx="0" dy="18" stdDeviation="18" flood-color="#000" flood-opacity=".45"/>
    </filter>
  </defs>
  <rect x="30" y="30" width="452" height="452" rx="105" fill="#0b1220"/>
  <rect x="48" y="48" width="416" height="416" rx="92" fill="url(#g)" filter="url(#s)"/>
  <circle cx="256" cy="220" r="92" fill="#0b1220" opacity=".28"/>
  <path d="M160 170h192c18 0 32 14 32 32v108c0 18-14 32-32 32H160c-18 0-32-14-32-32V202c0-18 14-32 32-32z" fill="#ffffff" opacity=".13"/>
  <path d="M209 198l106 58-106 58z" fill="#fff"/>
  <text x="256" y="395" text-anchor="middle" font-family="Arial Black, Arial, sans-serif" font-size="58" fill="#fff" font-weight="900">NOX</text>
  <text x="256" y="432" text-anchor="middle" font-family="Arial, sans-serif" font-size="28" fill="#e5e7eb" font-weight="700">IPTV</text>
</svg>
